<svg id="Triangle" xmlns="http://www.w3.org/2000/svg" viewBox="0 0 731.69 437.51"><defs><style>.cls-1{fill:#fff;}.cls-1,.cls-10,.cls-11,.cls-12,.cls-2,.cls-3,.cls-4,.cls-5,.cls-6,.cls-7,.cls-8,.cls-9{stroke:#000;stroke-miterlimit:10;}.cls-1,.cls-2{stroke-width:3px;}.cls-10,.cls-11,.cls-12,.cls-2,.cls-3,.cls-4,.cls-5,.cls-6,.cls-7,.cls-8,.cls-9{fill:none;}.cls-3{stroke-width:2px;}.cls-5{stroke-dasharray:12.01 12.01;}.cls-6{stroke-dasharray:12.35 12.35;}.cls-7{stroke-dasharray:11.85 11.85;}.cls-8{stroke-dasharray:12.28 12.28;}.cls-9{stroke-dasharray:11.89 11.89;}.cls-10{stroke-dasharray:12.24 12.24;}.cls-11{stroke-dasharray:11.98 11.98;}.cls-12{stroke-dasharray:12.51 12.51;}.cls-13{font-size:24px;font-family:Open Sans;font-weight:700;}</style></defs><title>itcss-layers1</title><polygon class="cls-1" points="252.6 434.51 2.6 1.5 502.6 1.5 252.6 434.51"/><line class="cls-2" x1="37.82" y1="62.5" x2="467.38" y2="62.5"/><line class="cls-2" x1="73.46" y1="125" x2="431.29" y2="125"/><line class="cls-2" x1="109.99" y1="187.51" x2="395.21" y2="187.51"/><line class="cls-2" x1="146.07" y1="250.01" x2="359.12" y2="250.01"/><line class="cls-2" x1="182.16" y1="312.51" x2="323.04" y2="312.51"/><line class="cls-2" x1="217.43" y1="375.01" x2="286.95" y2="375.01"/><line class="cls-3" x1="310.6" y1="88.5" x2="310.6" y2="89.17"/><line class="cls-4" x1="467.38" y1="62.5" x2="473.38" y2="62.5"/><line class="cls-5" x1="485.39" y1="62.5" x2="719.68" y2="62.5"/><line class="cls-4" x1="725.69" y1="62.5" x2="731.69" y2="62.5"/><line class="cls-4" x1="431.29" y1="125" x2="437.29" y2="125"/><line class="cls-6" x1="449.64" y1="125" x2="715.09" y2="125"/><line class="cls-4" x1="721.26" y1="125" x2="727.26" y2="125"/><line class="cls-4" x1="395.21" y1="187.51" x2="401.21" y2="187.51"/><line class="cls-7" x1="413.06" y1="187.51" x2="715.34" y2="187.51"/><line class="cls-4" x1="721.26" y1="187.51" x2="727.26" y2="187.51"/><line class="cls-4" x1="359.12" y1="250.01" x2="365.12" y2="250.01"/><line class="cls-8" x1="377.4" y1="250.01" x2="715.12" y2="250.01"/><line class="cls-4" x1="721.26" y1="250.01" x2="727.26" y2="250.01"/><line class="cls-4" x1="323.04" y1="312.51" x2="329.04" y2="312.51"/><line class="cls-9" x1="340.92" y1="312.51" x2="715.32" y2="312.51"/><line class="cls-4" x1="721.26" y1="312.51" x2="727.26" y2="312.51"/><line class="cls-4" x1="286.95" y1="375.01" x2="292.95" y2="375.01"/><line class="cls-10" x1="305.19" y1="375.01" x2="715.15" y2="375.01"/><line class="cls-4" x1="721.26" y1="375.01" x2="727.26" y2="375.01"/><line class="cls-4" x1="252.6" y1="436.51" x2="258.6" y2="436.51"/><line class="cls-11" x1="270.57" y1="436.51" x2="719.7" y2="436.51"/><line class="cls-4" x1="725.69" y1="436.51" x2="731.69" y2="436.51"/><line class="cls-4" x1="502.6" y1="1.5" x2="508.6" y2="1.5"/><line class="cls-12" x1="521.11" y1="1.5" x2="715.01" y2="1.5"/><line class="cls-4" x1="721.26" y1="1.5" x2="727.26" y2="1.5"/><text class="cls-13" transform="translate(590.89 413.97)">TRUMPS</text><text class="cls-13" transform="translate(518.26 352.57)">COMPONENTS</text><text class="cls-13" transform="translate(611.44 103.97)">TOOLS</text><text class="cls-13" transform="translate(587.39 167.37)">GENERIC</text><text class="cls-13" transform="translate(566.96 228.77)">ELEMENTS</text><text class="cls-13" transform="translate(591.17 290.17)">OBJECTS</text><text class="cls-13" transform="translate(576.32 44.57)">SETTINGS</text></svg>